<?xml version="1.0" encoding="UTF-8"?>
<svg version="1.1" xmlns="http://www.w3.org/2000/svg" width="472" height="450">
<path d="M0 0 C0.61617188 0.41765625 1.23234375 0.8353125 1.8671875 1.265625 C14.82014369 11.17433803 23.01934001 29.95886229 25.68652344 45.52539062 C28.4775728 67.55816037 25.55588026 88.89163956 11.75 106.8125 C3.8997974 115.92504674 -4.68478579 121.30343755 -16.73046875 122.3125 C-31.82940541 122.97120301 -43.09499112 118.59984727 -54.55859375 108.81640625 C-68.56549723 95.83283818 -75.38448783 77.65991005 -76.22265625 58.76953125 C-76.77148257 38.96053146 -72.21593786 18.5870527 -58.25 3.75 C-41.17337366 -12.35081912 -19.06438767 -13.05425868 0 0 Z M-44 21 C-51.39387156 31.18469563 -53.51114743 41.01026509 -53.375 53.4375 C-53.38660156 54.49259766 -53.39820313 55.54769531 -53.41015625 56.63476562 C-53.36168672 69.76193111 -49.86717582 82.20553081 -40.6875 91.875 C-34.98737645 97.18071632 -30.39252305 100.14124895 -22.5 100.5 C-15.04984636 100.17071144 -10.3308618 97.70553339 -5.25 92.3125 C2.33390514 82.98377842 4.39226816 71.94760517 4.3125 60.1875 C4.30686035 59.3109375 4.3012207 58.434375 4.29541016 57.53125 C4.056998 44.74669326 0.39674677 33.03759134 -7.25 22.625 C-12.75700171 17.36831655 -18.99345732 13.20316105 -26.7734375 12.83203125 C-33.45907923 13.33638668 -39.57004172 15.85632621 -44 21 Z " fill="#000000" transform="translate(202,61)"/>
<path d="M0 0 C13.49442622 10.23417284 20.4078818 24.49066457 23.30078125 40.9453125 C26.03170257 64.45498298 22.24302878 86.10137921 7.9375 105.3125 C0.02408509 114.49082724 -11.21076949 121.59297706 -23.25 123.8125 C-36.22778712 124.60643521 -46.98779277 123.36433936 -57.25 114.8125 C-71.5124255 101.09498444 -77.95676561 84.31084413 -78.53540039 64.67553711 C-78.81064472 42.57912098 -71.31120136 21.40644923 -55.98828125 5.29296875 C-40.10875427 -9.09148151 -18.15283465 -11.89896174 0 0 Z M-43.25 23.8125 C-54.23349601 36.86835375 -57.32147851 53.2300945 -56.25 69.8125 C-54.87441426 80.06581553 -51.56577477 90.21630364 -43.75 97.375 C-38.80937076 101.11822783 -33.82077074 102.35291638 -27.6796875 102.1875 C-19.70151631 100.95614239 -13.16943522 95.99796634 -8.25 89.8125 C1.68718166 76.10200172 3.25521899 59.25176577 1.125 42.8125 C-0.63031639 33.51176107 -4.56500823 25.08456081 -12.09375 19.1484375 C-23.16440386 12.28944543 -34.14223592 15.01347369 -43.25 23.8125 Z " fill="#000000" transform="translate(314.25,59.1875)"/>
<path d="M0 0 C15.19442656 10.26782277 25.54462554 26.47955204 29.3046875 44.3828125 C31.96653972 59.77526228 31.59579128 76.34959848 23.1875 89.875 C15.96613161 99.70758638 8.27276003 105.32675483 -3.9375 107.4375 C-18.39268363 109.06625308 -29.09935102 103.78001051 -40.31274414 95.06298828 C-48.04969087 88.73787637 -52.7855177 80.77966501 -57.3125 72 C-57.63839111 71.37206543 -57.96428223 70.74413086 -58.30004883 70.09716797 C-62.99273763 60.54572072 -64.54074483 51.20800107 -64.4375 40.625 C-64.42505249 38.97636963 -64.42505249 38.97636963 -64.41235352 37.29443359 C-64.1316858 23.81639029 -60.79780769 11.6552518 -50.86328125 1.90234375 C-35.25456058 -10.9278612 -16.70027788 -10.91390372 0 0 Z M-36 18 C-37.76508948 20.52703804 -38.91039606 23.12541675 -40 26 C-40.4125 27.03125 -40.825 28.0625 -41.25 29.125 C-44.15395889 44.12878762 -40.78234665 58.05383745 -33 71 C-28.10735915 78.07496986 -21.57526707 83.27111551 -13 85 C-7.14368702 85.55248236 -3.58088911 84.49564107 1 81 C7.69516717 74.11885597 8.98806996 66.29349818 9 57 C8.04483635 45.55540282 2.69383373 35.12624092 -4 26 C-4.5775 25.113125 -5.155 24.22625 -5.75 23.3125 C-11.10462937 17.80913093 -17.70652483 14.40504483 -25.3125 13.6875 C-29.65263275 14.05530786 -32.75877818 15.12160152 -36 18 Z " fill="#000000" transform="translate(109,147)"/>
<path d="M0 0 C10.16213965 7.26112344 16.44869237 18.30061214 18.5625 30.52734375 C18.80463289 34.56656054 18.7935502 38.60656078 18.8125 42.65234375 C18.833125 43.73 18.85375 44.80765625 18.875 45.91796875 C18.92527974 56.35101488 16.66916191 65.28874243 11.875 74.52734375 C11.52469727 75.20740479 11.17439453 75.88746582 10.81347656 76.58813477 C2.69816948 91.97416123 -9.16715325 103.21286979 -25.703125 109.37109375 C-35.42945591 112.03009069 -45.64471734 110.1910832 -54.4375 105.52734375 C-66.35191849 98.16593519 -72.10751546 87.8472819 -75.4375 74.52734375 C-78.72712777 57.48109074 -74.66781431 38.10161935 -65.48046875 23.39453125 C-63.55240995 20.68861316 -61.53699675 18.10147215 -59.4375 15.52734375 C-58.97988281 14.89570313 -58.52226562 14.2640625 -58.05078125 13.61328125 C-44.75889732 -3.86973725 -19.24414418 -11.62667044 0 0 Z M-45.33984375 33.21484375 C-52.09145009 43.94889865 -56.52129748 56.45315739 -53.89453125 69.15234375 C-51.89571833 76.57335084 -48.87908669 82.06778373 -42.4375 86.52734375 C-35.92625324 88.69775934 -31.49027955 87.8550858 -25.375 85.02734375 C-13.96629305 78.8565966 -8.41970846 68.32719929 -4.5625 56.21484375 C-1.72380946 44.52214224 -2.54545394 32.66276152 -8.3125 22.08984375 C-11.60362602 18.12113296 -13.88766057 16.77205524 -19 15.96484375 C-30.10004179 16.44745426 -39.25413809 24.61737866 -45.33984375 33.21484375 Z " fill="#000000" transform="translate(400.4375,144.47265625)"/>
<path d="M0 0 C1.14235107 0.00491455 2.28470215 0.0098291 3.46166992 0.01489258 C21.48347119 0.26425405 37.46879924 4.75766054 52.25 15.3125 C53.06984375 15.89644531 53.8896875 16.48039062 54.734375 17.08203125 C64.41523777 24.40433987 72.26505381 33.60364635 79.625 43.1875 C87.66014511 53.63174087 96.8399329 62.95605506 106.19335938 72.21679688 C127.21027054 93.02579136 144.99803355 116.25050865 145.49145508 147.17578125 C145.57626453 172.10491254 139.08453367 192.20591412 121.25 210.3125 C104.63804061 226.95510876 82.81443927 234.33459181 59.5625 234.53125 C48.44985924 234.53310623 37.53590251 232.92595551 26.54296875 231.44873047 C9.00372718 229.11672205 -6.92818022 228.73259095 -24.5 231.25 C-27.29555687 231.62629973 -30.0927 231.98942122 -32.890625 232.34765625 C-33.5702832 232.43470825 -34.24994141 232.52176025 -34.95019531 232.6114502 C-62.61946408 236.08692288 -90.24544381 234.04941525 -113.0625 216.4375 C-114.64499838 215.0855643 -116.20758346 213.70999149 -117.75 212.3125 C-118.58015625 211.57515625 -119.4103125 210.8378125 -120.265625 210.078125 C-136.89879562 194.4653943 -144.55120992 173.89441805 -145.74560547 151.34838867 C-146.42056618 128.04746401 -137.89709845 107.9366529 -122.1875 91 C-121.25682008 90.01806337 -120.32327535 89.03883313 -119.38671875 88.0625 C-117.02018439 85.59429231 -114.75360758 83.07071934 -112.5 80.5 C-108.58125202 76.1160769 -104.43565262 72.00034954 -100.25 67.875 C-95.16363614 62.84682679 -90.42241199 57.7342039 -85.98046875 52.1171875 C-81.41050132 46.37071357 -76.57485442 40.84522993 -71.75 35.3125 C-71.28303711 34.77415527 -70.81607422 34.23581055 -70.33496094 33.68115234 C-51.17762172 11.71216383 -29.49833569 -0.15060194 0 0 Z M-54.86328125 48.80859375 C-57.17864674 51.62782116 -59.46914859 54.46528853 -61.75 57.3125 C-68.12343856 65.26791707 -74.78786975 72.87192952 -81.75 80.3125 C-82.37390625 80.98152344 -82.9978125 81.65054688 -83.640625 82.33984375 C-85.69514026 84.5416789 -87.75301371 86.7403141 -89.8125 88.9375 C-90.84624756 90.04146118 -90.84624756 90.04146118 -91.90087891 91.16772461 C-94.77097211 94.21707011 -97.63594024 97.2516307 -100.6796875 100.12890625 C-113.51394698 112.26347869 -123.48144903 128.91084086 -124.0625 146.875 C-123.63532522 164.61399488 -117.99279111 181.16073136 -105.75 194.3125 C-105.26660156 194.83714844 -104.78320312 195.36179687 -104.28515625 195.90234375 C-91.83592287 207.84473811 -73.76170942 212.9113968 -56.91381836 212.86914062 C-49.70676523 212.62662607 -42.70512232 211.38904888 -35.61013794 210.16445923 C-11.0800728 205.94809723 12.15007709 206.41705582 36.62817383 210.51293945 C59.76846946 214.35561343 79.90303042 212.94145639 100.25 200.3125 C110.17837234 193.1655944 115.82388249 182.45363068 120.25 171.3125 C120.59160156 170.4771875 120.93320312 169.641875 121.28515625 168.78125 C126.38802809 153.78118022 124.17064033 135.99418705 117.671875 121.88671875 C111.91199031 110.63937635 104.24578027 102.0242424 95.25 93.25 C89.8845391 87.99264914 84.60235473 82.75603316 79.74707031 77.01831055 C78.24405228 75.30572298 76.66127465 73.74563565 75 72.1875 C71.06729985 68.33415927 67.80821699 64.00489213 64.45166016 59.65576172 C60.93121937 55.11634151 57.22516477 50.81039656 53.3203125 46.59375 C51.77459841 44.89054806 50.30377751 43.11882788 48.875 41.31640625 C39.55037546 30.64581656 24.49590549 23.11632513 10.37744141 22.10717773 C7.2282122 22.00871711 4.08818643 21.99044668 0.9375 22 C-0.11373047 21.98388672 -1.16496094 21.96777344 -2.24804688 21.95117188 C-23.96153543 21.93782615 -41.11299814 32.56750151 -54.86328125 48.80859375 Z " fill="#000000" transform="translate(231.75,190.6875)"/>
<path d="M0 0 C1.78275709 1.4833365 3.4233938 3.00711484 5.0234375 4.68359375 C7.84750384 3.39660023 9.86513383 2.02373976 12.0859375 -0.12890625 C19.9513329 -7.07496972 29.46498352 -9.70637709 39.7265625 -9.59375 C50.95612372 -8.64908312 59.22569526 -3.53036364 66.7734375 4.49609375 C74.96173796 14.25475321 75.86712923 25.38979992 75.0234375 37.68359375 C71.46026849 56.83026094 57.10029894 70.86170123 42.84301758 83.11132812 C40.52791146 85.11176867 38.31311574 87.21111807 36.0859375 89.30859375 C31.27831638 93.6975737 26.25189036 97.72414651 21.0859375 101.68359375 C20.35189697 102.24771973 19.61785645 102.8118457 18.86157227 103.39306641 C9.97829659 110.12446723 9.97829659 110.12446723 5.0234375 109.87109375 C-1.90738121 108.87613119 -6.79498615 104.05829164 -11.9765625 99.68359375 C-12.54068848 99.21421387 -13.10481445 98.74483398 -13.68603516 98.26123047 C-60.5755592 59.18007646 -60.5755592 59.18007646 -62.9765625 37.68359375 C-64.04687064 24.22112413 -61.66243365 12.83816405 -53.26171875 2.06640625 C-38.46496633 -13.36268602 -16.26888204 -12.13409972 0 0 Z " fill="#000000" transform="translate(225.9765625,272.31640625)"/>
</svg>
